<svg xmlns="http://www.w3.org/2000/svg" viewBox="0 0 64 64">
  <circle cx="32" cy="32" r="32" fill="#E60023"></circle>
  <path fill="#fff" d="M32.4 11.5c-11.2 0-20.2 7.6-20.2 17.7 0 7.5 4.2 11.9 6.7 11.9 1 0 1.6-2.8 1.6-3.6 0-.9-2.3-2.8-2.3-6.6 0-7.9 6-13.5 13.8-13.5 6.7 0 11.6 3.8 11.6 10.8 0 5.2-2.1 15-8.9 15-2.5 0-4.6-1.8-4.6-4.4 0-3.9 2.7-7.6 2.7-11.6 0-6.8-9.7-5.6-9.7 2.6 0 1.7.2 3.5 1 5.1-1.4 5.9-4.2 14.7-4.2 20.8 0 1.9.3 3.8.5 5.6.3.3.2.3.6.1 4.9-6.7 4.7-8 6.7-16.8 1.3 2.4 4.7 3.6 7.3 3.6 11.1 0 16.1-10.8 16.1-20.6 0-10.4-9-17.3-18.9-17.3z"></path>
</svg>